<svg width="150" height="17" viewBox="0 0 150 17" fill="none" xmlns="http://www.w3.org/2000/svg">
<path d="M0.772 16V0.984999H1.78V15.076H8.689V16H0.772ZM11.6763 16V2.371H18.0393V3.211H12.6423V8.167H17.5143V8.986H12.6423V15.118H18.2493V16H11.6763ZM22.7867 11.275L20.8337 16H19.8467L25.5587 2.287H26.1257L31.8797 16H30.8087L28.8347 11.275H22.7867ZM25.7897 3.841C25.5797 4.471 25.3907 4.996 25.2227 5.416L23.1227 10.456H28.4987L26.4197 5.437C26.0977 4.653 25.8877 4.121 25.7897 3.841ZM34.645 16V2.434C35.849 2.336 36.871 2.287 37.711 2.287C38.999 2.287 40.063 2.623 40.903 3.295C41.743 3.953 42.163 4.898 42.163 6.13C42.163 6.956 41.925 7.719 41.449 8.419C40.973 9.119 40.434 9.686 39.832 10.12C41.498 12.332 42.527 13.655 42.919 14.089C43.717 14.915 44.585 15.384 45.523 15.496L45.502 16.147C44.718 16.133 44.081 16.021 43.591 15.811C43.101 15.587 42.611 15.216 42.121 14.698C41.645 14.18 40.588 12.787 38.95 10.519C37.816 10.519 36.703 10.484 35.611 10.414V16H34.645ZM38.425 9.721C38.971 9.721 39.559 9.357 40.189 8.629C40.819 7.901 41.134 7.054 41.134 6.088C41.134 5.122 40.805 4.387 40.147 3.883C39.489 3.379 38.635 3.127 37.585 3.127C37.025 3.127 36.367 3.155 35.611 3.211V9.616C36.619 9.686 37.557 9.721 38.425 9.721ZM47.4214 16V2.287H47.8834L56.8294 12.577C57.1514 12.941 57.4454 13.305 57.7114 13.669C57.9914 14.019 58.1384 14.201 58.1524 14.215C58.1244 13.879 58.1104 13.221 58.1104 12.241V2.371H59.0764V16.084H58.6144L49.5004 5.626L48.3454 4.219C48.3734 4.499 48.3874 5.157 48.3874 6.193V16H47.4214ZM75.6857 16V8.482H65.3747V16H64.3667V0.984999H65.3747V7.579H75.6857V0.984999H76.6937V16H75.6857ZM82.649 11.275L80.696 16H79.709L85.421 2.287H85.988L91.742 16H90.671L88.697 11.275H82.649ZM85.652 3.841C85.442 4.471 85.253 4.996 85.085 5.416L82.985 10.456H88.361L86.282 5.437C85.96 4.653 85.75 4.121 85.652 3.841ZM94.5073 16V2.287H94.9693L103.915 12.577C104.237 12.941 104.531 13.305 104.797 13.669C105.077 14.019 105.224 14.201 105.238 14.215C105.21 13.879 105.196 13.221 105.196 12.241V2.371H106.162V16.084H105.7L96.5863 5.626L95.4313 4.219C95.4593 4.499 95.4733 5.157 95.4733 6.193V16H94.5073ZM116.892 3.022C115.338 3.022 114.029 3.617 112.965 4.807C111.915 5.983 111.39 7.432 111.39 9.154C111.39 10.876 111.985 12.339 113.175 13.543C114.365 14.733 115.765 15.328 117.375 15.328C118.999 15.328 120.259 15.139 121.155 14.761V9.154H122.121V15.202C121.029 15.874 119.482 16.21 117.48 16.21C115.478 16.21 113.791 15.531 112.419 14.173C111.047 12.815 110.361 11.149 110.361 9.175C110.361 7.187 110.977 5.521 112.209 4.177C113.455 2.833 115.058 2.161 117.018 2.161C118.6 2.161 120.147 2.406 121.659 2.896L121.407 3.694C119.951 3.246 118.446 3.022 116.892 3.022ZM136.407 14.593C135.483 15.671 134.076 16.21 132.186 16.21C130.296 16.21 128.889 15.671 127.965 14.593C127.041 13.515 126.579 12.024 126.579 10.12V2.371H127.545V10.12C127.545 13.606 129.092 15.349 132.186 15.349C135.28 15.349 136.827 13.606 136.827 10.12V2.371H137.793V10.12C137.793 12.024 137.331 13.515 136.407 14.593ZM142.701 16V2.371H143.667V15.118H149.925V16H142.701Z" fill="#16161D"/>
</svg>
