<svg width="30" height="30" viewBox="0 0 30 30" fill="none" xmlns="http://www.w3.org/2000/svg">
<path d="M15 26.25C11.875 26.25 9.21875 25.1562 7.03125 22.9688C4.84375 20.7812 3.75 18.125 3.75 15C3.75 11.875 4.84375 9.21875 7.03125 7.03125C9.21875 4.84375 11.875 3.75 15 3.75C15.1667 3.75 15.3438 3.75521 15.5312 3.76562C15.7188 3.77604 15.9583 3.79167 16.25 3.8125C15.5 4.47917 14.9167 5.30208 14.5 6.28125C14.0833 7.26042 13.875 8.29167 13.875 9.375C13.875 11.25 14.5312 12.8438 15.8438 14.1562C17.1562 15.4688 18.75 16.125 20.625 16.125C21.7083 16.125 22.7396 15.9323 23.7188 15.5469C24.6979 15.1615 25.5208 14.625 26.1875 13.9375C26.2083 14.1875 26.224 14.3906 26.2344 14.5469C26.2448 14.7031 26.25 14.8542 26.25 15C26.25 18.125 25.1562 20.7812 22.9688 22.9688C20.7812 25.1562 18.125 26.25 15 26.25ZM15 24.375C17.2708 24.375 19.25 23.6719 20.9375 22.2656C22.625 20.8594 23.6771 19.2083 24.0938 17.3125C23.5729 17.5417 23.0139 17.7135 22.4167 17.8281C21.8194 17.9427 21.2222 18 20.625 18C18.2356 18 16.2008 17.1598 14.5205 15.4795C12.8402 13.7992 12 11.7644 12 9.375C12 8.875 12.0521 8.33854 12.1562 7.76562C12.2604 7.19271 12.4479 6.54167 12.7188 5.8125C10.6771 6.375 8.98438 7.51562 7.64062 9.23438C6.29688 10.9531 5.625 12.875 5.625 15C5.625 17.6042 6.53646 19.8177 8.35938 21.6406C10.1823 23.4635 12.3958 24.375 15 24.375Z" fill="#EE8181"/>
</svg>
